<?xml version="1.0" encoding="utf-8"?>
<!-- Svg Vector Icons : http://www.onlinewebfonts.com/icon -->
<!DOCTYPE svg PUBLIC "-//W3C//DTD SVG 1.1//EN" "http://www.w3.org/Graphics/SVG/1.1/DTD/svg11.dtd">
<svg version="1.1" xmlns="http://www.w3.org/2000/svg" xmlns:xlink="http://www.w3.org/1999/xlink" x="0px" y="0px" viewBox="0 0 1000 1000" enable-background="new 0 0 1000 1000" xml:space="preserve">
<metadata> Svg Vector Icons : http://www.onlinewebfonts.com/icon </metadata>
<g><path d="M988.4,321.3l-82.2,427.2c-10.7,50.2-59.8,82.2-109.6,71.4l-197.1-62.7c-0.1,0-0.2,0-0.3-0.1c-0.1,0-0.2,0-0.2-0.1l-1.8-0.4l-0.3-0.2c-14.7-3.8-26.2-11.8-31.4-20.9l-0.6-0.4L538.2,701l0.2,0.1l-46.3-115.9l0.3-0.9c-4.5-6-6.7-13.7-4.9-21.7c2-9,8.4-15.5,16.3-18.6l0.2-0.6l87.4-64.6l98-87.3l-108.5-90.5c0-1.1,0.5-2.4,1-3.7c-6-6.8-9.9-15.6-9.9-25.4c0-9.4,3.5-17.9,9.1-24.6l0,0c21.4-30.8,45.5-66.3,72.3-92.3v0c0,0,14.7-18.5,39.9-15.3l0.4-0.1l7.4,1.6h0l0,0L906,209.8C955.8,220.5,999.1,271.2,988.4,321.3L988.4,321.3L988.4,321.3z M374.5,674.1l149.2,102.8c0,0,1.9,11.3-10.3,14l-312.3,67.9c-49.7,10.8-98.9-21.2-109.6-71.3L10,362.1c0-77.3,10.8-102.4,60.5-113.2l269-59.1c0,0,0.6-0.1,1.3-0.3l3-0.7l0.3,0.3c5.7-0.1,14.7,2.1,16.6,17.7L318.6,374l0.5,0.5l-7.1,33.6c1.6,7.8,6.4,22.9,20.3,31.2l69.1,29.1c0,0,22.7,12.9,19.2,39.9l0,0c-17.6,31.9-43.3,78.7-59.8,108.8c0,0-12.5,30.7,3.2,47.3L374.5,674.1L374.5,674.1L374.5,674.1z"/></g>
</svg>